# xmcd
#
# Track frame offsets:
#	150
#	13625
#	30300
#	41890
#	60920
#	72460
#	84800
#	97532
#	112425
#	134677
#	161460
#	174225
#	187787
#	199802
#	213095
#	233375
#	247087
#	261947
#	275840
#	301102
# Disc length: 4243 seconds
# Revision: 2
# Processed by: cddbd v1.5.1PL2 Copyright (c) Steve Scherf et al.
#
# Submitted via: libkcddb 0.21
#
DISCID=06109114
DTITLE=Best Of Jazz - CD 4
DYEAR=1900
DGENRE=Jazz
TTITLE0=Gerry Mulligan - Five Brothers
TTITLE1=Art Pepper - Alfie
TTITLE2=Bud Powell - Bud's Bubble
TTITLE3=Duke Ellington - Caravan
TTITLE4=Dinah Washington - Don't Say Nothin' At All
TTITLE5=Stan Kenton - Fascinating Rhythm
TTITLE6=Benny Carter - I Can't Get Started
TTITLE7=Chet Baker - I Fall In Love Too Easily
TTITLE8=McCoy Tyner - I Mean You
TTITLE9=Herbie Hancock - Jack Rabbit
TTITLE10=Stan Kenton - Just A-Sittin' And A-Rockin'
TTITLE11=Benny Carter - Love For Sale
TTITLE12=Art Pepper - On The Road
TTITLE13=Duke Ellington - Satin Doll
TTITLE14=Jimmy Smith - Summertime
TTITLE15=Chet Baker - That Old Feeling
TTITLE16=Mose Allison - This Ain't me
TTITLE17=Bud Powell - Wail
TTITLE18=Horage Silver - Where You At?
TTITLE19=Count Basie - Whirly-Bird
EXTD=
EXTT0=
EXTT1=
EXTT2=
EXTT3=
EXTT4=
EXTT5=
EXTT6=
EXTT7=
EXTT8=
EXTT9=
EXTT10=
EXTT11=
EXTT12=
EXTT13=
EXTT14=
EXTT15=
EXTT16=
EXTT17=
EXTT18=
EXTT19=
PLAYORDER=
